<svg width="24" height="24" viewBox="0 0 24 24" fill="none" xmlns="http://www.w3.org/2000/svg">
<path d="M20.0524 3H3.94765C3.70178 3.0166 3.47027 3.12177 3.29602 3.29602C3.12177 3.47027 3.0166 3.70178 3 3.94765V20.0524C3.00139 20.3033 3.10168 20.5435 3.2791 20.7209C3.45651 20.8983 3.69674 20.9986 3.94765 21H12.5686V13.9895H10.2942V11.3372H12.6628V9.34765C12.6118 8.87052 12.6666 8.388 12.8233 7.93447C12.9801 7.48095 13.2349 7.06757 13.5697 6.72379C13.9045 6.38002 14.311 6.1143 14.7602 5.94558C15.2094 5.77685 15.6903 5.70927 16.1686 5.74765C17.1162 5.74765 17.9686 5.84188 18.2524 5.84188V8.30577H16.8314C15.6942 8.30577 15.5047 8.87435 15.5047 9.63247V11.3372H18.1571L17.778 14.0848H15.4105V21H20.0524C20.3033 20.9986 20.5435 20.8983 20.7209 20.7209C20.8983 20.5435 20.9986 20.3033 21 20.0524V3.94765C20.9834 3.70178 20.8782 3.47027 20.704 3.29602C20.5297 3.12177 20.2982 3.0166 20.0524 3V3Z" fill="white"/>
</svg>
