<svg width="221" height="58" viewBox="0 0 221 58" fill="none" xmlns="http://www.w3.org/2000/svg">
<path d="M10.5762 4.31934L4.77539 22H0.102539L8.02734 0.671875H11.001L10.5762 4.31934ZM15.3955 22L9.58008 4.31934L9.11133 0.671875H12.1143L20.083 22H15.3955ZM15.1318 14.0605V17.5029H3.86719V14.0605H15.1318ZM26.4551 0.671875V22H22.0605V0.671875H26.4551ZM34.9512 9.7832V13.2109H25.2539V9.7832H34.9512ZM35.9766 0.671875V4.11426H25.2539V0.671875H35.9766ZM38.5254 0.671875H46.4795C48.1104 0.671875 49.5117 0.916016 50.6836 1.4043C51.8652 1.89258 52.7734 2.61523 53.4082 3.57227C54.043 4.5293 54.3604 5.70605 54.3604 7.10254C54.3604 8.24512 54.165 9.22656 53.7744 10.0469C53.3936 10.8574 52.8516 11.5361 52.1484 12.083C51.4551 12.6201 50.6396 13.0498 49.7021 13.3721L48.3105 14.1045H41.3965L41.3672 10.6768H46.5088C47.2803 10.6768 47.9199 10.54 48.4277 10.2666C48.9355 9.99316 49.3164 9.6123 49.5703 9.12402C49.834 8.63574 49.9658 8.06934 49.9658 7.4248C49.9658 6.74121 49.8389 6.15039 49.585 5.65234C49.3311 5.1543 48.9453 4.77344 48.4277 4.50977C47.9102 4.24609 47.2607 4.11426 46.4795 4.11426H42.9199V22H38.5254V0.671875ZM50.4492 22L45.5859 12.4932L50.2295 12.4639L55.1514 21.7949V22H50.4492ZM62.417 0.671875V22H58.0371V0.671875H62.417ZM78.8965 14.9248H83.2764C83.1885 16.3604 82.793 17.6348 82.0898 18.748C81.3965 19.8613 80.4248 20.7305 79.1748 21.3555C77.9346 21.9805 76.4404 22.293 74.6924 22.293C73.3252 22.293 72.0996 22.0586 71.0156 21.5898C69.9316 21.1113 69.0039 20.4277 68.2324 19.5391C67.4707 18.6504 66.8896 17.5762 66.4893 16.3164C66.0889 15.0566 65.8887 13.6455 65.8887 12.083V10.6035C65.8887 9.04102 66.0938 7.62988 66.5039 6.37012C66.9238 5.10059 67.5195 4.02148 68.291 3.13281C69.0723 2.24414 70.0049 1.56055 71.0889 1.08203C72.1729 0.603516 73.3838 0.364258 74.7217 0.364258C76.499 0.364258 77.998 0.686523 79.2188 1.33105C80.4492 1.97559 81.4014 2.86426 82.0752 3.99707C82.7588 5.12988 83.1689 6.41895 83.3057 7.86426H78.9111C78.8623 7.00488 78.6914 6.27734 78.3984 5.68164C78.1055 5.07617 77.6611 4.62207 77.0654 4.31934C76.4795 4.00684 75.6982 3.85059 74.7217 3.85059C73.9893 3.85059 73.3496 3.9873 72.8027 4.26074C72.2559 4.53418 71.7969 4.94922 71.4258 5.50586C71.0547 6.0625 70.7764 6.76562 70.5908 7.61523C70.415 8.45508 70.3271 9.44141 70.3271 10.5742V12.083C70.3271 13.1865 70.4102 14.1582 70.5762 14.998C70.7422 15.8281 70.9961 16.5312 71.3379 17.1074C71.6895 17.6738 72.1387 18.1035 72.6855 18.3965C73.2422 18.6797 73.9111 18.8213 74.6924 18.8213C75.6104 18.8213 76.3672 18.6748 76.9629 18.3818C77.5586 18.0889 78.0127 17.6543 78.3252 17.0781C78.6475 16.502 78.8379 15.7842 78.8965 14.9248ZM94.834 4.31934L89.0332 22H84.3604L92.2852 0.671875H95.2588L94.834 4.31934ZM99.6533 22L93.8379 4.31934L93.3691 0.671875H96.3721L104.341 22H99.6533ZM99.3896 14.0605V17.5029H88.125V14.0605H99.3896ZM126.152 14.9248H130.532C130.444 16.3604 130.049 17.6348 129.346 18.748C128.652 19.8613 127.681 20.7305 126.431 21.3555C125.19 21.9805 123.696 22.293 121.948 22.293C120.581 22.293 119.355 22.0586 118.271 21.5898C117.188 21.1113 116.26 20.4277 115.488 19.5391C114.727 18.6504 114.146 17.5762 113.745 16.3164C113.345 15.0566 113.145 13.6455 113.145 12.083V10.6035C113.145 9.04102 113.35 7.62988 113.76 6.37012C114.18 5.10059 114.775 4.02148 115.547 3.13281C116.328 2.24414 117.261 1.56055 118.345 1.08203C119.429 0.603516 120.64 0.364258 121.978 0.364258C123.755 0.364258 125.254 0.686523 126.475 1.33105C127.705 1.97559 128.657 2.86426 129.331 3.99707C130.015 5.12988 130.425 6.41895 130.562 7.86426H126.167C126.118 7.00488 125.947 6.27734 125.654 5.68164C125.361 5.07617 124.917 4.62207 124.321 4.31934C123.735 4.00684 122.954 3.85059 121.978 3.85059C121.245 3.85059 120.605 3.9873 120.059 4.26074C119.512 4.53418 119.053 4.94922 118.682 5.50586C118.311 6.0625 118.032 6.76562 117.847 7.61523C117.671 8.45508 117.583 9.44141 117.583 10.5742V12.083C117.583 13.1865 117.666 14.1582 117.832 14.998C117.998 15.8281 118.252 16.5312 118.594 17.1074C118.945 17.6738 119.395 18.1035 119.941 18.3965C120.498 18.6797 121.167 18.8213 121.948 18.8213C122.866 18.8213 123.623 18.6748 124.219 18.3818C124.814 18.0889 125.269 17.6543 125.581 17.0781C125.903 16.502 126.094 15.7842 126.152 14.9248ZM145.195 0.671875H149.575V14.7637C149.575 16.4043 149.224 17.7861 148.521 18.9092C147.827 20.0322 146.865 20.877 145.635 21.4434C144.414 22.0098 143.008 22.293 141.416 22.293C139.824 22.293 138.408 22.0098 137.168 21.4434C135.938 20.877 134.971 20.0322 134.268 18.9092C133.574 17.7861 133.228 16.4043 133.228 14.7637V0.671875H137.622V14.7637C137.622 15.7207 137.773 16.502 138.076 17.1074C138.379 17.7129 138.813 18.1572 139.38 18.4404C139.956 18.7236 140.635 18.8652 141.416 18.8652C142.217 18.8652 142.896 18.7236 143.452 18.4404C144.019 18.1572 144.448 17.7129 144.741 17.1074C145.044 16.502 145.195 15.7207 145.195 14.7637V0.671875ZM161.499 14.3975H156.064V10.9697H161.499C162.339 10.9697 163.022 10.833 163.55 10.5596C164.077 10.2764 164.463 9.88574 164.707 9.3877C164.951 8.88965 165.073 8.32812 165.073 7.70312C165.073 7.06836 164.951 6.47754 164.707 5.93066C164.463 5.38379 164.077 4.94434 163.55 4.6123C163.022 4.28027 162.339 4.11426 161.499 4.11426H157.588V22H153.193V0.671875H161.499C163.169 0.671875 164.6 0.974609 165.791 1.58008C166.992 2.17578 167.91 3.00098 168.545 4.05566C169.18 5.11035 169.497 6.31641 169.497 7.67383C169.497 9.05078 169.18 10.2422 168.545 11.248C167.91 12.2539 166.992 13.0303 165.791 13.5771C164.6 14.124 163.169 14.3975 161.499 14.3975ZM197.52 10.8379V11.8486C197.52 13.4697 197.3 14.9248 196.86 16.2139C196.421 17.5029 195.801 18.6016 195 19.5098C194.199 20.4082 193.242 21.0967 192.129 21.5752C191.025 22.0537 189.8 22.293 188.452 22.293C187.114 22.293 185.889 22.0537 184.775 21.5752C183.672 21.0967 182.715 20.4082 181.904 19.5098C181.094 18.6016 180.464 17.5029 180.015 16.2139C179.575 14.9248 179.355 13.4697 179.355 11.8486V10.8379C179.355 9.20703 179.575 7.75195 180.015 6.47266C180.454 5.18359 181.074 4.08496 181.875 3.17676C182.686 2.26855 183.643 1.5752 184.746 1.09668C185.859 0.618164 187.085 0.378906 188.423 0.378906C189.771 0.378906 190.996 0.618164 192.1 1.09668C193.213 1.5752 194.17 2.26855 194.971 3.17676C195.781 4.08496 196.406 5.18359 196.846 6.47266C197.295 7.75195 197.52 9.20703 197.52 10.8379ZM193.081 11.8486V10.8086C193.081 9.67578 192.979 8.67969 192.773 7.82031C192.568 6.96094 192.266 6.23828 191.865 5.65234C191.465 5.06641 190.977 4.62695 190.4 4.33398C189.824 4.03125 189.165 3.87988 188.423 3.87988C187.681 3.87988 187.021 4.03125 186.445 4.33398C185.879 4.62695 185.396 5.06641 184.995 5.65234C184.604 6.23828 184.307 6.96094 184.102 7.82031C183.896 8.67969 183.794 9.67578 183.794 10.8086V11.8486C183.794 12.9717 183.896 13.9678 184.102 14.8369C184.307 15.6963 184.609 16.4238 185.01 17.0195C185.41 17.6055 185.898 18.0498 186.475 18.3525C187.051 18.6553 187.71 18.8066 188.452 18.8066C189.194 18.8066 189.854 18.6553 190.43 18.3525C191.006 18.0498 191.489 17.6055 191.88 17.0195C192.271 16.4238 192.568 15.6963 192.773 14.8369C192.979 13.9678 193.081 12.9717 193.081 11.8486ZM205.078 0.671875V22H200.684V0.671875H205.078ZM213.574 9.7832V13.2109H203.877V9.7832H213.574ZM214.6 0.671875V4.11426H203.877V0.671875H214.6ZM19.2627 35.6719V57H14.8682L6.29883 42.7031V57H1.9043V35.6719H6.29883L14.8828 49.9834V35.6719H19.2627ZM32.0215 39.3193L26.2207 57H21.5479L29.4727 35.6719H32.4463L32.0215 39.3193ZM36.8408 57L31.0254 39.3193L30.5566 35.6719H33.5596L41.5283 57H36.8408ZM36.5771 49.0605V52.5029H25.3125V49.0605H36.5771ZM51.2256 35.6719V57H46.8457V35.6719H51.2256ZM57.7881 35.6719V39.1143H40.3857V35.6719H57.7881ZM64.9658 35.6719V57H60.5859V35.6719H64.9658ZM86.6016 45.8379V46.8486C86.6016 48.4697 86.3818 49.9248 85.9424 51.2139C85.5029 52.5029 84.8828 53.6016 84.082 54.5098C83.2812 55.4082 82.3242 56.0967 81.2109 56.5752C80.1074 57.0537 78.8818 57.293 77.5342 57.293C76.1963 57.293 74.9707 57.0537 73.8574 56.5752C72.7539 56.0967 71.7969 55.4082 70.9863 54.5098C70.1758 53.6016 69.5459 52.5029 69.0967 51.2139C68.6572 49.9248 68.4375 48.4697 68.4375 46.8486V45.8379C68.4375 44.207 68.6572 42.752 69.0967 41.4727C69.5361 40.1836 70.1562 39.085 70.957 38.1768C71.7676 37.2686 72.7246 36.5752 73.8281 36.0967C74.9414 35.6182 76.167 35.3789 77.5049 35.3789C78.8525 35.3789 80.0781 35.6182 81.1816 36.0967C82.2949 36.5752 83.252 37.2686 84.0527 38.1768C84.8633 39.085 85.4883 40.1836 85.9277 41.4727C86.377 42.752 86.6016 44.207 86.6016 45.8379ZM82.1631 46.8486V45.8086C82.1631 44.6758 82.0605 43.6797 81.8555 42.8203C81.6504 41.9609 81.3477 41.2383 80.9473 40.6523C80.5469 40.0664 80.0586 39.627 79.4824 39.334C78.9062 39.0312 78.2471 38.8799 77.5049 38.8799C76.7627 38.8799 76.1035 39.0312 75.5273 39.334C74.9609 39.627 74.4775 40.0664 74.0771 40.6523C73.6865 41.2383 73.3887 41.9609 73.1836 42.8203C72.9785 43.6797 72.876 44.6758 72.876 45.8086V46.8486C72.876 47.9717 72.9785 48.9678 73.1836 49.8369C73.3887 50.6963 73.6914 51.4238 74.0918 52.0195C74.4922 52.6055 74.9805 53.0498 75.5566 53.3525C76.1328 53.6553 76.792 53.8066 77.5342 53.8066C78.2764 53.8066 78.9355 53.6553 79.5117 53.3525C80.0879 53.0498 80.5713 52.6055 80.9619 52.0195C81.3525 51.4238 81.6504 50.6963 81.8555 49.8369C82.0605 48.9678 82.1631 47.9717 82.1631 46.8486ZM107.124 35.6719V57H102.729L94.1602 42.7031V57H89.7656V35.6719H94.1602L102.744 49.9834V35.6719H107.124ZM122.051 51.4189C122.051 51.0381 121.992 50.6963 121.875 50.3936C121.768 50.0811 121.562 49.7979 121.26 49.5439C120.957 49.2803 120.532 49.0215 119.985 48.7676C119.438 48.5137 118.73 48.25 117.861 47.9766C116.895 47.6641 115.977 47.3125 115.107 46.9219C114.248 46.5312 113.486 46.0771 112.822 45.5596C112.168 45.0322 111.65 44.4219 111.27 43.7285C110.898 43.0352 110.713 42.2295 110.713 41.3115C110.713 40.4229 110.908 39.6172 111.299 38.8945C111.689 38.1621 112.236 37.5371 112.939 37.0195C113.643 36.4922 114.473 36.0869 115.43 35.8037C116.396 35.5205 117.456 35.3789 118.608 35.3789C120.181 35.3789 121.553 35.6621 122.725 36.2285C123.896 36.7949 124.805 37.5713 125.449 38.5576C126.104 39.5439 126.431 40.6719 126.431 41.9414H122.065C122.065 41.3164 121.934 40.7695 121.67 40.3008C121.416 39.8223 121.025 39.4463 120.498 39.1729C119.98 38.8994 119.326 38.7627 118.535 38.7627C117.773 38.7627 117.139 38.8799 116.631 39.1143C116.123 39.3389 115.742 39.6465 115.488 40.0371C115.234 40.418 115.107 40.8477 115.107 41.3262C115.107 41.6875 115.195 42.0146 115.371 42.3076C115.557 42.6006 115.83 42.874 116.191 43.1279C116.553 43.3818 116.997 43.6211 117.524 43.8457C118.052 44.0703 118.662 44.29 119.355 44.5049C120.518 44.8564 121.538 45.252 122.417 45.6914C123.306 46.1309 124.048 46.624 124.644 47.1709C125.239 47.7178 125.688 48.3379 125.991 49.0312C126.294 49.7246 126.445 50.5107 126.445 51.3896C126.445 52.3174 126.265 53.1475 125.903 53.8799C125.542 54.6123 125.02 55.2324 124.336 55.7402C123.652 56.248 122.837 56.6338 121.89 56.8975C120.942 57.1611 119.883 57.293 118.711 57.293C117.656 57.293 116.616 57.1562 115.591 56.8828C114.565 56.5996 113.633 56.1748 112.793 55.6084C111.963 55.042 111.299 54.3193 110.801 53.4404C110.303 52.5615 110.054 51.5215 110.054 50.3203H114.463C114.463 50.9844 114.565 51.5459 114.771 52.0049C114.976 52.4639 115.264 52.835 115.635 53.1182C116.016 53.4014 116.465 53.6064 116.982 53.7334C117.51 53.8604 118.086 53.9238 118.711 53.9238C119.473 53.9238 120.098 53.8164 120.586 53.6016C121.084 53.3867 121.45 53.0889 121.685 52.708C121.929 52.3271 122.051 51.8975 122.051 51.4189ZM151.055 53.7041V57H136.465V54.1875L143.364 46.79C144.058 46.0186 144.604 45.3398 145.005 44.7539C145.405 44.1582 145.693 43.626 145.869 43.1572C146.055 42.6787 146.147 42.2246 146.147 41.7949C146.147 41.1504 146.04 40.5986 145.825 40.1396C145.61 39.6709 145.293 39.3096 144.873 39.0557C144.463 38.8018 143.955 38.6748 143.35 38.6748C142.705 38.6748 142.148 38.8311 141.68 39.1436C141.221 39.4561 140.869 39.8906 140.625 40.4473C140.391 41.0039 140.273 41.6338 140.273 42.3369H136.04C136.04 41.0674 136.343 39.9053 136.948 38.8506C137.554 37.7861 138.408 36.9414 139.512 36.3164C140.615 35.6816 141.924 35.3643 143.438 35.3643C144.932 35.3643 146.191 35.6084 147.217 36.0967C148.252 36.5752 149.033 37.2686 149.561 38.1768C150.098 39.0752 150.366 40.1494 150.366 41.3994C150.366 42.1025 150.254 42.791 150.029 43.4648C149.805 44.1289 149.482 44.793 149.062 45.457C148.652 46.1113 148.154 46.7754 147.568 47.4492C146.982 48.123 146.333 48.8213 145.62 49.5439L141.914 53.7041H151.055ZM168.047 44.4609V48.1523C168.047 49.7539 167.876 51.1357 167.534 52.2979C167.192 53.4502 166.699 54.3975 166.055 55.1396C165.42 55.8721 164.663 56.4141 163.784 56.7656C162.905 57.1172 161.929 57.293 160.854 57.293C159.995 57.293 159.194 57.1855 158.452 56.9707C157.71 56.7461 157.041 56.3994 156.445 55.9307C155.859 55.4619 155.352 54.8711 154.922 54.1582C154.502 53.4355 154.18 52.5762 153.955 51.5801C153.73 50.584 153.618 49.4414 153.618 48.1523V44.4609C153.618 42.8594 153.789 41.4873 154.131 40.3447C154.482 39.1924 154.976 38.25 155.61 37.5176C156.255 36.7852 157.017 36.248 157.896 35.9062C158.774 35.5547 159.751 35.3789 160.825 35.3789C161.685 35.3789 162.48 35.4912 163.213 35.7158C163.955 35.9307 164.624 36.2676 165.22 36.7266C165.815 37.1855 166.323 37.7764 166.743 38.499C167.163 39.2119 167.485 40.0664 167.71 41.0625C167.935 42.0488 168.047 43.1816 168.047 44.4609ZM163.813 48.709V43.8896C163.813 43.1182 163.77 42.4443 163.682 41.8682C163.604 41.292 163.481 40.8037 163.315 40.4033C163.149 39.9932 162.944 39.6611 162.7 39.4072C162.456 39.1533 162.178 38.9678 161.865 38.8506C161.553 38.7334 161.206 38.6748 160.825 38.6748C160.347 38.6748 159.922 38.7676 159.551 38.9531C159.189 39.1387 158.882 39.4365 158.628 39.8467C158.374 40.2471 158.179 40.7842 158.042 41.458C157.915 42.1221 157.852 42.9326 157.852 43.8896V48.709C157.852 49.4805 157.891 50.1592 157.969 50.7451C158.057 51.3311 158.184 51.834 158.35 52.2539C158.525 52.6641 158.73 53.001 158.965 53.2646C159.209 53.5186 159.487 53.7041 159.8 53.8213C160.122 53.9385 160.474 53.9971 160.854 53.9971C161.323 53.9971 161.738 53.9043 162.1 53.7188C162.471 53.5234 162.783 53.2207 163.037 52.8105C163.301 52.3906 163.496 51.8438 163.623 51.1699C163.75 50.4961 163.813 49.6758 163.813 48.709ZM185.508 53.7041V57H170.918V54.1875L177.817 46.79C178.511 46.0186 179.058 45.3398 179.458 44.7539C179.858 44.1582 180.146 43.626 180.322 43.1572C180.508 42.6787 180.601 42.2246 180.601 41.7949C180.601 41.1504 180.493 40.5986 180.278 40.1396C180.063 39.6709 179.746 39.3096 179.326 39.0557C178.916 38.8018 178.408 38.6748 177.803 38.6748C177.158 38.6748 176.602 38.8311 176.133 39.1436C175.674 39.4561 175.322 39.8906 175.078 40.4473C174.844 41.0039 174.727 41.6338 174.727 42.3369H170.493C170.493 41.0674 170.796 39.9053 171.401 38.8506C172.007 37.7861 172.861 36.9414 173.965 36.3164C175.068 35.6816 176.377 35.3643 177.891 35.3643C179.385 35.3643 180.645 35.6084 181.67 36.0967C182.705 36.5752 183.486 37.2686 184.014 38.1768C184.551 39.0752 184.819 40.1494 184.819 41.3994C184.819 42.1025 184.707 42.791 184.482 43.4648C184.258 44.1289 183.936 44.793 183.516 45.457C183.105 46.1113 182.607 46.7754 182.021 47.4492C181.436 48.123 180.786 48.8213 180.073 49.5439L176.367 53.7041H185.508ZM192.466 44.5049H194.722C195.444 44.5049 196.04 44.3828 196.509 44.1387C196.978 43.8848 197.324 43.5332 197.549 43.084C197.783 42.625 197.9 42.0928 197.9 41.4873C197.9 40.9404 197.793 40.457 197.578 40.0371C197.373 39.6074 197.056 39.2754 196.626 39.041C196.196 38.7969 195.654 38.6748 195 38.6748C194.482 38.6748 194.004 38.7773 193.564 38.9824C193.125 39.1875 192.773 39.4756 192.51 39.8467C192.246 40.2178 192.114 40.667 192.114 41.1943H187.881C187.881 40.0225 188.193 39.002 188.818 38.1328C189.453 37.2637 190.303 36.585 191.367 36.0967C192.432 35.6084 193.604 35.3643 194.883 35.3643C196.328 35.3643 197.593 35.5986 198.677 36.0674C199.761 36.5264 200.605 37.2051 201.211 38.1035C201.816 39.002 202.119 40.1152 202.119 41.4434C202.119 42.1172 201.963 42.7715 201.65 43.4062C201.338 44.0312 200.889 44.5977 200.303 45.1055C199.727 45.6035 199.023 46.0039 198.193 46.3066C197.363 46.5996 196.431 46.7461 195.396 46.7461H192.466V44.5049ZM192.466 47.7129V45.5303H195.396C196.558 45.5303 197.578 45.6621 198.457 45.9258C199.336 46.1895 200.073 46.5703 200.669 47.0684C201.265 47.5566 201.714 48.1377 202.017 48.8115C202.319 49.4756 202.471 50.2129 202.471 51.0234C202.471 52.0195 202.28 52.9082 201.899 53.6895C201.519 54.4609 200.981 55.1152 200.288 55.6523C199.604 56.1895 198.804 56.5996 197.886 56.8828C196.968 57.1562 195.967 57.293 194.883 57.293C193.984 57.293 193.101 57.1709 192.231 56.9268C191.372 56.6729 190.591 56.2969 189.888 55.7988C189.194 55.291 188.638 54.6562 188.218 53.8945C187.808 53.123 187.603 52.21 187.603 51.1553H191.836C191.836 51.7021 191.973 52.1904 192.246 52.6201C192.52 53.0498 192.896 53.3867 193.374 53.6309C193.862 53.875 194.404 53.9971 195 53.9971C195.674 53.9971 196.25 53.875 196.729 53.6309C197.217 53.377 197.588 53.0254 197.842 52.5762C198.105 52.1172 198.237 51.585 198.237 50.9795C198.237 50.1982 198.096 49.5732 197.812 49.1045C197.529 48.626 197.124 48.2744 196.597 48.0498C196.069 47.8252 195.444 47.7129 194.722 47.7129H192.466ZM218.833 43.5967V38.3818L217.222 43.5967H216.152L214.526 38.3672V43.5967H212.651V35.6719H214.966L216.68 41.1064L218.525 35.6719H220.723V43.5967H218.833ZM211.611 35.6719V37.21H209.722V43.5527H207.627V37.21H205.635V35.6719H211.611Z" fill="white"/>
</svg>
