<svg width="24" height="24" viewBox="0 0 24 24" fill="none" xmlns="http://www.w3.org/2000/svg">
<path fill-rule="evenodd" clip-rule="evenodd" d="M1.25 7.45455C1.25 4.04033 4.04033 1.25 7.45455 1.25H16.5455C19.9597 1.25 22.75 4.04033 22.75 7.45455V16.5455C22.75 19.9597 19.9597 22.75 16.5455 22.75H7.45455C4.04033 22.75 1.25 19.9597 1.25 16.5455V7.45455ZM7.45455 2.75C4.86876 2.75 2.75 4.86876 2.75 7.45455V16.5455C2.75 19.1312 4.86876 21.25 7.45455 21.25H16.5455C19.1312 21.25 21.25 19.1312 21.25 16.5455V7.45455C21.25 4.86876 19.1312 2.75 16.5455 2.75H7.45455ZM12 15.5C13.933 15.5 15.5 13.933 15.5 12C15.5 10.067 13.933 8.5 12 8.5C10.067 8.5 8.5 10.067 8.5 12C8.5 13.933 10.067 15.5 12 15.5ZM12 17C14.7614 17 17 14.7614 17 12C17 9.23858 14.7614 7 12 7C9.23858 7 7 9.23858 7 12C7 14.7614 9.23858 17 12 17ZM17 7C17.5523 7 18 6.55228 18 6C18 5.44771 17.5523 5 17 5C16.4477 5 16 5.44771 16 6C16 6.55228 16.4477 7 17 7Z" fill="white"/>
</svg>
