<svg width="24" height="24" viewBox="0 0 24 24" fill="none" xmlns="http://www.w3.org/2000/svg">
<path d="M23 6.01262C22.7129 6.4417 22.3882 6.84184 22.0259 7.21304C21.6636 7.58423 21.2705 7.92307 20.8467 8.22956C20.8535 8.32491 20.8586 8.41856 20.8621 8.51051C20.8655 8.60246 20.8672 8.69611 20.8672 8.79146C20.8672 9.64963 20.7749 10.4976 20.5903 11.3353C20.4058 12.1731 20.1392 12.9836 19.7905 13.7668C19.2847 14.9042 18.6523 15.9208 17.8936 16.8164C17.1348 17.712 16.2751 18.4697 15.3147 19.0895C14.3543 19.7093 13.3066 20.1827 12.1719 20.5096C11.0371 20.8365 9.84766 21 8.60351 21C7.42773 21 6.281 20.8382 5.16333 20.5147C4.04565 20.1912 2.99121 19.7093 2 19.0691C2.33496 19.11 2.67676 19.1304 3.02539 19.1304C4.00293 19.1304 4.94799 18.9738 5.86059 18.6605C6.77319 18.3471 7.6123 17.8908 8.37792 17.2915C7.91992 17.2846 7.479 17.208 7.05517 17.0616C6.63134 16.9152 6.2434 16.7108 5.89135 16.4486C5.5393 16.1864 5.23168 15.8748 4.9685 15.5138C4.70531 15.1528 4.50194 14.7544 4.35839 14.3185C4.49511 14.3389 4.63012 14.356 4.76342 14.3696C4.89672 14.3832 5.03173 14.39 5.16845 14.39C5.55126 14.39 5.92723 14.3389 6.29638 14.2368C5.79052 14.1346 5.32739 13.9541 4.90698 13.6953C4.48657 13.4365 4.12255 13.1215 3.81493 12.7503C3.50732 12.3791 3.26806 11.9602 3.09716 11.4937C2.92626 11.0271 2.84081 10.5385 2.84081 10.0276V9.97656C3.44238 10.3171 4.09521 10.4976 4.79931 10.518C4.49853 10.3137 4.23022 10.0804 3.99438 9.81821C3.75854 9.55599 3.55859 9.27163 3.39453 8.96514C3.23046 8.65865 3.104 8.33514 3.01513 7.99459C2.92626 7.65405 2.88183 7.30329 2.88183 6.94231C2.88183 6.5609 2.92968 6.188 3.02538 5.82362C3.12109 5.45924 3.26806 5.11358 3.4663 4.78666C4.01318 5.46094 4.62158 6.06541 5.2915 6.60006C5.96142 7.13472 6.67407 7.59275 7.42944 7.97416C8.18481 8.35557 8.97607 8.65695 9.80321 8.87831C10.6304 9.09966 11.478 9.23077 12.3462 9.27164C12.3052 9.11498 12.2761 8.95323 12.259 8.78636C12.2419 8.61949 12.2334 8.45433 12.2334 8.29087C12.2334 7.69832 12.3462 7.14153 12.5718 6.62049C12.7974 6.09946 13.105 5.64483 13.4946 5.25661C13.8843 4.86839 14.3406 4.5619 14.8635 4.33714C15.3865 4.11238 15.9453 4 16.54 4C17.1416 4 17.7141 4.11749 18.2576 4.35246C18.801 4.58744 19.2778 4.92288 19.688 5.35877C20.1733 5.26342 20.6433 5.1289 21.0979 4.95523C21.5525 4.78155 21.9917 4.56871 22.4155 4.31671C22.2583 4.8139 22.0173 5.26683 21.6926 5.67548C21.3679 6.08413 20.98 6.42127 20.5288 6.6869C21.3901 6.58474 22.2139 6.35998 23 6.01262L23 6.01262Z" fill="white"/>
</svg>
